<?xml version="1.0" encoding="utf-8"?>
<!-- Generator: Adobe Illustrator 16.0.0, SVG Export Plug-In . SVG Version: 6.00 Build 0)  -->
<!DOCTYPE svg PUBLIC "-//W3C//DTD SVG 1.1//EN" "http://www.w3.org/Graphics/SVG/1.1/DTD/svg11.dtd">
<svg version="1.1" id="Layer_1" xmlns="http://www.w3.org/2000/svg" xmlns:xlink="http://www.w3.org/1999/xlink" x="0px" y="0px"
	 width="100px" height="100px" viewBox="0 0 100 100" enable-background="new 0 0 100 100" xml:space="preserve">
<g>
	<path fill="#8166AD" d="M217.671,32.482c-4.123-4.582-7.599-9.177-13.653-11.208c-8.551-2.867-17.215-2.776-25.77-0.662
		c-20.285,5.01-35.287,16.575-43.564,36.179c-1.479,3.499-0.631,4.888,3.246,4.791c6.65-0.168,13.328-0.389,19.953,0.029
		c3.403,0.214,7.166,1.066,9.967,2.87c3.811,2.454,7.32,2.791,11.283,1.319c2.903-1.077,5.725-2.381,8.646-3.402
		c5.828-2.039,11.225-1.692,16.131,2.66c2.405,2.134,5.158,3.99,8.019,5.465c3.979,2.049,7.463,1.056,9.244-3
		c1.801-4.104,2.722-8.599,3.979-12.762C222.516,47.008,223.641,39.112,217.671,32.482z M152.061,42.441
		c11.49-12.536,26.256-16.729,42.744-16.147c3.377,0.118,6.723,0.921,10.098,1.27c4.007,0.415,5.754,2.962,6.898,7.048
		C190.409,27.685,170.979,32.558,152.061,42.441z M167.826,49.654c5.797-5.122,12.807-7.367,20.154-7.563
		c7.466-0.199,14.959,0.914,22.447,1.294c3.329,0.168,4.755,1.808,4.784,5.62C199.343,45.374,183.538,44.621,167.826,49.654z"/>
</g>
<g id="eiWRcp_1_">
	<g>
		<g>
			<path fill-rule="evenodd" clip-rule="evenodd" d="M-458.204,77.383c55.66,1.021,99.889,11.373,139.394,37.691
				c8.535,5.687,16.272,12.688,23.85,19.657c5.933,5.458,5.887,8.597,2.737,15.934c-0.533,1.239,0.11,3.446,0.939,4.739
				c12.212,19.055,21.983,39.189,27.369,61.274c8.432,34.575,5.524,68.603-6.646,101.675c-6.477,17.597-14.959,34.456-22.579,51.63
				c-4.003,9.02-11.667,12.917-20.855,14.282c-33.597,4.991-67.209,9.875-100.817,14.787c-49.263,7.2-98.524,14.418-147.794,21.574
				c-23.82,3.459-47.652,6.846-71.496,10.147c-4.729,0.655-9.626,1.481-14.27,0.878c-2.824-0.366-6.58-2.723-7.749-5.206
				c-9.2-19.54-19.234-38.819-23.376-60.315c-2.982-15.479-1.066-30.177,7.679-43.63c0.453-0.698,0.775-1.65,1.424-2.026
				c6.761-3.92,6.528-11.029,7.919-17.333c9.735-44.141,24.562-86.344,47.536-125.465c0.419-0.714,0.997-1.444,1.095-2.219
				c2.521-19.881,14.889-34.258,27.849-47.838c23.065-24.167,52.21-37.785,84.504-44.346
				C-484.438,79.81-466.94,78.527-458.204,77.383z M-656.818,315.169c1.642,0.199,2.762,0.488,3.869,0.447
				c32.615-1.216,65.282-1.714,97.827-3.964c22.986-1.589,45.407-7.105,66.183-17.734c25.964-13.282,43.215-33.853,49.294-62.51
				c5.937-27.987-14.561-44.236-34.233-43.78c-18.814,0.438-37.653-0.178-56.481-0.355c-25.657-0.242-51.271-0.977-76.867-7.294
				C-632.134,221.823-647.233,267.277-656.818,315.169z"/>
			<path fill-rule="evenodd" clip-rule="evenodd" d="M-1.983,808.684c-13.482,8.468-26.799,16.83-40.58,25.484
				c-12.142-19.771-17.419-40.868-14.488-64.111c-5.503-0.902-4.706-4.396-3.616-8.205c9.931-34.728,31.7-58.926,65.998-69.995
				c43.911-14.172,85.006-7.141,120.372,23.018c32.351,27.587,42.454,72.944,27.271,112.688
				c-4.924,12.89-12.603,22.265-27.563,23.14c-1.809,0.106-3.572,0.815-5.382,1.071c-25.551,3.611-51.092,7.3-76.669,10.724
				c-9.187,1.23-18.314,0.426-27.01-3.126c-12.887-5.264-19.354-16.215-18.41-30.066C-1.61,822.702-1.983,816.045-1.983,808.684z
				 M-52.913,770.336c-2.569,21.401,1.537,40.223,11.694,58.279c13.077-8.242,25.596-16.115,38.081-24.039
				c0.786-0.5,1.636-1.285,1.927-2.122c2.831-8.146-2.468-20.406-10.735-22.658C-25.232,776.177-38.786,773.542-52.913,770.336z"/>
			<path fill-rule="evenodd" clip-rule="evenodd" d="M-309.462,858.759c-1.903,2.423-3.364,4.235-4.773,6.087
				c-1.924,2.529-4.103,2.866-6.979,1.427c-8.161-4.082-8.298-4.49-2.378-11.441c0.631-0.741,1.193-1.539,1.775-2.294
				c-6.625-6.304-6.748-8.831-0.889-15.978c1.895-2.312,3.856-4.569,5.717-6.906c1.735-2.179,3.377-4.432,5.393-7.09
				c-12.026-5.05-13.362-15.15-13.324-26.152c0.076-22.302-10.018-38.21-31.303-45.429c-14.447-4.9-29.49-8.036-44.23-12.089
				c-2.428-0.667-4.673-1.998-7.002-3.021c1.836-1.951,3.365-4.389,5.559-5.771c11.409-7.187,24.173-10.95,37.127-14.21
				c2.143-0.539,4.684-1.365,6.028-2.93c27.808-32.343,77.484-39.941,115.686-24.099c38.11,15.806,60.039,50.906,56.411,92.007
				c-1.118,12.666-4.606,25.119-6.85,37.697c-0.283,1.591,0.089,3.486,0.714,5.012c1.303,3.179-2.092,8.469-5.997,8.49
				c-9.966,0.057-19.936-0.033-29.899-0.264c-9.127-0.212-18.248-0.895-27.37-0.87c-1.874,0.005-3.94,2.001-5.579,3.46
				c-8.066,7.18-15.696,14.888-24.109,21.624C-292.661,861.564-300.694,864.247-309.462,858.759z"/>
			<path fill-rule="evenodd" clip-rule="evenodd" d="M-212.574,32.109c-13.735,0.982-26.838,1.923-39.94,2.854
				c-7.977,0.566-15.95,1.199-23.934,1.645c-5.478,0.306-7.163-1.343-6.521-6.619c4.128-33.944,15.159-65.347,34.491-93.73
				c2.592-3.805,4.815-7.147,10.226-5.918c0.839,0.191,2.23-1.219,3.105-2.137c21.025-22.075,47.415-30.699,77.152-30.144
				c23.653,0.442,45.215,7.66,63.831,22.549c40.05,32.029,43.711,94.791,7.588,129.75c-11.831,11.45-26.072,18.182-42.6,18.207
				c-15.777,0.025-31.791,0.186-47.263-2.368c-13.465-2.223-26.317-8.153-39.441-12.442c-3.626-1.186-3.867-3.916-2.779-6.844
				C-216.929,42.258-214.899,37.716-212.574,32.109z M-279.922,33.438c23.248-1.688,45.295-3.263,67.331-4.964
				c1.07-0.083,2.537-1.035,3.009-1.985c8.352-16.817,16.704-33.638,24.749-50.603c2.328-4.908,0.819-9.974-3.561-13.418
				c-2.563-2.016-5.603-3.604-8.659-4.784c-13.177-5.09-26.367-10.166-39.709-14.797c-4.904-1.702-7.503-3.684-4.994-9.372
				C-263.519-36.721-275.73-3.674-279.922,33.438z"/>
			<path fill-rule="evenodd" clip-rule="evenodd" fill="#FFFFFF" d="M-656.818,315.169c9.585-47.892,24.685-93.346,49.591-135.19
				c25.596,6.317,51.21,7.052,76.867,7.294c18.828,0.178,37.667,0.793,56.481,0.355c19.673-0.456,40.17,15.793,34.233,43.78
				c-6.079,28.657-23.33,49.228-49.294,62.51c-20.775,10.629-43.196,16.146-66.183,17.734c-32.545,2.25-65.212,2.748-97.827,3.964
				C-654.057,315.657-655.177,315.368-656.818,315.169z"/>
			<path fill-rule="evenodd" clip-rule="evenodd" fill="#FFFFFF" d="M-52.913,770.336c14.127,3.206,27.681,5.841,40.967,9.46
				c8.268,2.252,13.566,14.512,10.735,22.658c-0.291,0.837-1.141,1.622-1.927,2.122c-12.485,7.924-25.004,15.797-38.081,24.039
				C-51.376,810.559-55.482,791.737-52.913,770.336z"/>
			<path fill-rule="evenodd" clip-rule="evenodd" fill="#FFFFFF" d="M-279.922,33.438c4.192-37.112,16.403-70.159,38.166-99.923
				c-2.509,5.688,0.09,7.67,4.994,9.372c13.342,4.631,26.532,9.707,39.709,14.797c3.057,1.181,6.096,2.769,8.659,4.784
				c4.38,3.444,5.889,8.51,3.561,13.418c-8.045,16.965-16.397,33.785-24.749,50.603c-0.472,0.95-1.938,1.902-3.009,1.985
				C-234.627,30.176-256.674,31.751-279.922,33.438z"/>
		</g>
	</g>
</g>
<path fill-rule="evenodd" clip-rule="evenodd" d="M358.02,241.567c-1.352-1.521-3.337-3.648-5.174-5.898
	c-0.457-0.56-0.557-1.504-0.605-2.284c-0.096-1.549-0.146-3.114-0.033-4.66c0.35-4.791-1.316-8.806-4.684-12.103
	c-1.443-1.415-1.177-2.302,0.236-3.503c2.436-2.071,4.748-4.291,7.068-6.494c1.002-0.952,1.774-1.148,3.05-0.224
	c4.972,3.604,10.136,4.066,15.639,0.922c4.278-2.445,8.752-4.554,13.166-6.756c1.887-0.942,2.718-2.184,2.154-4.394
	c-1.306-5.126-2.478-10.286-3.652-15.443c-0.474-2.085-2.097-2.597-3.818-3.027c-5.938-1.481-11.856-3.055-17.831-4.375
	c-2.412-0.533-3.111-1.431-1.983-3.704c0.595-1.201,0.913-2.538,1.433-4.028c-8.467-1.529-16.729-3.022-24.99-4.516
	c-0.54-0.097-1.129-0.091-1.608-0.316c-0.974-0.458-1.888-1.043-2.827-1.575c0.907-0.64,1.731-1.621,2.734-1.861
	c5.861-1.403,11.766-2.633,17.654-3.924c7.852-1.722,15.711-3.416,23.549-5.199c1.305-0.296,2.631-0.809,3.758-1.521
	c15.916-10.057,32.092-10.869,48.365-1.092c5.621,3.378,10.998,7.217,16.201,11.218c5.033,3.871,7.971,9.012,8.57,15.605
	c1.002,11.03,0.918,21.882-2.518,32.562c-0.914,2.844-2.354,4.357-5.334,5.057c-22.606,5.297-45.037,11.267-66.47,20.341
	C372.803,233.452,365.949,237.506,358.02,241.567z"/>
<path fill-rule="evenodd" clip-rule="evenodd" fill="#8166AD" d="M5.565,65.647c0.93-3.789,2.053-6.815,2.369-9.923
	C9.66,38.721,18.626,27.647,34.896,22.667c9.933-3.042,20.161-4.913,30.558-3.442c17.82,2.521,29.284,15.605,29.662,33.588
	c0.087,4.099-0.668,8.214-1.015,12.323c-0.226,2.681-0.414,5.365-0.66,8.579c-7.728,5.705-13.875,4.729-19.37-3.641
	c-4.896-7.453-12.601-7.666-18.096-0.501c-4.762,6.208-10.384,6.394-14.821,0.198c-2.138-2.984-4.765-4.153-8.258-4.138
	C23.744,65.677,14.59,65.647,5.565,65.647z"/>
<g>
	<path fill-rule="evenodd" clip-rule="evenodd" d="M444.702,330.943c-3.59,0.764-6.497,1.409-9.416,2.002
		c-24.284,4.928-48.309,10.658-70.336,22.608c-3.11,1.688-3.971,1.374-4.964-1.98c-0.552-1.857-1.015-3.774-1.211-5.695
		c-0.279-2.726-1.057-5.171-2.117-7.738c-1.335-3.233-2.299-7.083-1.889-10.482c1.184-9.8,3.066-19.52,4.839-29.24
		c0.436-2.387,1.587-4.637,2.254-6.991c0.535-1.89,0.509-3.992,1.296-5.746c3.373-7.511,8.72-13.375,15.634-17.812
		c16.753-10.754,42.459-9.377,57.156,3.057c5.592,4.731,9.769,10.591,13.336,16.917c1.739,3.086,1.638,6.438,0.817,9.704
		c-2.039,8.107-4.183,16.189-6.424,24.243C443.014,326.171,441.756,328.425,444.702,330.943z M356.887,327.189
		c2.03-0.581,3.55-0.988,5.053-1.453c9.719-3.004,19.46-5.941,29.142-9.062c5.136-1.657,8.771-5.188,11.076-10.054
		c0.926-1.956,1.865-3.919,2.599-5.949c2.777-7.688-0.259-11.85-8.354-11.5c-9.962,0.429-19.92,0.925-29.881,1.315
		c-1.348,0.052-2.165,0.419-2.536,1.743c-1.709,6.102-3.773,12.127-5.067,18.314C357.804,315.872,357.559,321.383,356.887,327.189z"
		/>
	<path fill-rule="evenodd" clip-rule="evenodd" fill="#FFFFFF" d="M356.887,327.189c0.672-5.807,0.917-11.317,2.031-16.646
		c1.294-6.188,3.358-12.213,5.067-18.314c0.371-1.324,1.188-1.691,2.536-1.743c9.961-0.391,19.919-0.887,29.881-1.315
		c8.095-0.35,11.131,3.812,8.354,11.5c-0.733,2.03-1.673,3.993-2.599,5.949c-2.305,4.866-5.94,8.396-11.076,10.054
		c-9.682,3.121-19.423,6.059-29.142,9.062C360.437,326.201,358.917,326.608,356.887,327.189z"/>
</g>
</svg>
