<?xml version="1.0" encoding="utf-8"?>
<!-- Generator: Adobe Illustrator 16.0.0, SVG Export Plug-In . SVG Version: 6.00 Build 0)  -->
<!DOCTYPE svg PUBLIC "-//W3C//DTD SVG 1.1//EN" "http://www.w3.org/Graphics/SVG/1.1/DTD/svg11.dtd">
<svg version="1.1" id="Layer_1" xmlns="http://www.w3.org/2000/svg" xmlns:xlink="http://www.w3.org/1999/xlink" x="0px" y="0px"
	 width="100px" height="100px" viewBox="0 0 100 100" enable-background="new 0 0 100 100" xml:space="preserve">
<g>
	<path fill="#8166AD" d="M217.671,32.482c-4.123-4.582-7.599-9.177-13.653-11.208c-8.551-2.867-17.215-2.776-25.77-0.662
		c-20.285,5.01-35.287,16.575-43.564,36.179c-1.479,3.499-0.631,4.888,3.246,4.791c6.65-0.168,13.328-0.389,19.953,0.029
		c3.403,0.214,7.166,1.066,9.967,2.87c3.811,2.454,7.32,2.791,11.283,1.319c2.903-1.077,5.725-2.381,8.646-3.402
		c5.828-2.039,11.225-1.692,16.131,2.66c2.405,2.134,5.158,3.99,8.019,5.465c3.979,2.049,7.463,1.056,9.244-3
		c1.801-4.104,2.722-8.599,3.979-12.762C222.516,47.008,223.641,39.112,217.671,32.482z M152.061,42.441
		c11.49-12.536,26.256-16.729,42.744-16.147c3.377,0.118,6.723,0.921,10.098,1.27c4.007,0.415,5.754,2.962,6.898,7.048
		C190.409,27.685,170.979,32.558,152.061,42.441z M167.826,49.654c5.797-5.122,12.807-7.367,20.154-7.563
		c7.466-0.199,14.959,0.914,22.447,1.294c3.329,0.168,4.755,1.808,4.784,5.62C199.343,45.374,183.538,44.621,167.826,49.654z"/>
</g>
<g id="eiWRcp_1_">
	<g>
		<g>
			<path fill-rule="evenodd" clip-rule="evenodd" d="M-458.204,77.383c55.66,1.021,99.889,11.373,139.394,37.691
				c8.535,5.687,16.272,12.688,23.85,19.657c5.933,5.458,5.887,8.597,2.737,15.934c-0.533,1.239,0.11,3.446,0.939,4.739
				c12.212,19.055,21.983,39.189,27.369,61.274c8.432,34.575,5.524,68.603-6.646,101.675c-6.477,17.597-14.959,34.456-22.579,51.63
				c-4.003,9.02-11.667,12.917-20.855,14.282c-33.597,4.991-67.209,9.875-100.817,14.787c-49.263,7.2-98.524,14.418-147.794,21.574
				c-23.82,3.459-47.652,6.846-71.496,10.147c-4.729,0.655-9.626,1.481-14.27,0.878c-2.824-0.366-6.58-2.723-7.749-5.206
				c-9.2-19.54-19.234-38.819-23.376-60.315c-2.982-15.479-1.066-30.177,7.679-43.63c0.453-0.698,0.775-1.65,1.424-2.026
				c6.761-3.92,6.528-11.029,7.919-17.333c9.735-44.141,24.562-86.344,47.536-125.465c0.419-0.714,0.997-1.444,1.095-2.219
				c2.521-19.881,14.889-34.258,27.849-47.838c23.065-24.167,52.21-37.785,84.504-44.346
				C-484.438,79.81-466.94,78.527-458.204,77.383z M-656.818,315.169c1.642,0.199,2.762,0.488,3.869,0.447
				c32.615-1.216,65.282-1.714,97.827-3.964c22.986-1.589,45.407-7.105,66.183-17.734c25.964-13.282,43.215-33.853,49.294-62.51
				c5.937-27.987-14.561-44.236-34.233-43.78c-18.814,0.438-37.653-0.178-56.481-0.355c-25.657-0.242-51.271-0.977-76.867-7.294
				C-632.134,221.823-647.233,267.277-656.818,315.169z"/>
			<path fill-rule="evenodd" clip-rule="evenodd" d="M-1.983,808.684c-13.482,8.468-26.799,16.83-40.58,25.484
				c-12.142-19.771-17.419-40.868-14.488-64.111c-5.503-0.902-4.706-4.396-3.616-8.205c9.931-34.728,31.7-58.926,65.998-69.995
				c43.911-14.172,85.006-7.141,120.372,23.018c32.351,27.587,42.454,72.944,27.271,112.688
				c-4.924,12.89-12.603,22.265-27.563,23.14c-1.809,0.106-3.572,0.815-5.382,1.071c-25.551,3.611-51.092,7.3-76.669,10.724
				c-9.187,1.23-18.314,0.426-27.01-3.126c-12.887-5.264-19.354-16.215-18.41-30.066C-1.61,822.702-1.983,816.045-1.983,808.684z
				 M-52.913,770.336c-2.569,21.401,1.537,40.223,11.694,58.279c13.077-8.242,25.596-16.115,38.081-24.039
				c0.786-0.5,1.636-1.285,1.927-2.122c2.831-8.146-2.468-20.406-10.735-22.658C-25.232,776.177-38.786,773.542-52.913,770.336z"/>
			<path fill-rule="evenodd" clip-rule="evenodd" d="M-309.462,858.759c-1.903,2.423-3.364,4.235-4.773,6.087
				c-1.924,2.529-4.103,2.866-6.979,1.427c-8.161-4.082-8.298-4.49-2.378-11.441c0.631-0.741,1.193-1.539,1.775-2.294
				c-6.625-6.304-6.748-8.831-0.889-15.978c1.895-2.312,3.856-4.569,5.717-6.906c1.735-2.179,3.377-4.432,5.393-7.09
				c-12.026-5.05-13.362-15.15-13.324-26.152c0.076-22.302-10.018-38.21-31.303-45.429c-14.447-4.9-29.49-8.036-44.23-12.089
				c-2.428-0.667-4.673-1.998-7.002-3.021c1.836-1.951,3.365-4.389,5.559-5.771c11.409-7.187,24.173-10.95,37.127-14.21
				c2.143-0.539,4.684-1.365,6.028-2.93c27.808-32.343,77.484-39.941,115.686-24.099c38.11,15.806,60.039,50.906,56.411,92.007
				c-1.118,12.666-4.606,25.119-6.85,37.697c-0.283,1.591,0.089,3.486,0.714,5.012c1.303,3.179-2.092,8.469-5.997,8.49
				c-9.966,0.057-19.936-0.033-29.899-0.264c-9.127-0.212-18.248-0.895-27.37-0.87c-1.874,0.005-3.94,2.001-5.579,3.46
				c-8.066,7.18-15.696,14.888-24.109,21.624C-292.661,861.564-300.694,864.247-309.462,858.759z"/>
			<path fill-rule="evenodd" clip-rule="evenodd" d="M-212.574,32.109c-13.735,0.982-26.838,1.923-39.94,2.854
				c-7.977,0.566-15.95,1.199-23.934,1.645c-5.478,0.306-7.163-1.343-6.521-6.619c4.128-33.944,15.159-65.347,34.491-93.73
				c2.592-3.805,4.815-7.147,10.226-5.918c0.839,0.191,2.23-1.219,3.105-2.137c21.025-22.075,47.415-30.699,77.152-30.144
				c23.653,0.442,45.215,7.66,63.831,22.549c40.05,32.029,43.711,94.791,7.588,129.75c-11.831,11.45-26.072,18.182-42.6,18.207
				c-15.777,0.025-31.791,0.186-47.263-2.368c-13.465-2.223-26.317-8.153-39.441-12.442c-3.626-1.186-3.867-3.916-2.779-6.844
				C-216.929,42.258-214.899,37.716-212.574,32.109z M-279.922,33.438c23.248-1.688,45.295-3.263,67.331-4.964
				c1.07-0.083,2.537-1.035,3.009-1.985c8.352-16.817,16.704-33.638,24.749-50.603c2.328-4.908,0.819-9.974-3.561-13.418
				c-2.563-2.016-5.603-3.604-8.659-4.784c-13.177-5.09-26.367-10.166-39.709-14.797c-4.904-1.702-7.503-3.684-4.994-9.372
				C-263.519-36.721-275.73-3.674-279.922,33.438z"/>
			<path fill-rule="evenodd" clip-rule="evenodd" fill="#FFFFFF" d="M-656.818,315.169c9.585-47.892,24.685-93.346,49.591-135.19
				c25.596,6.317,51.21,7.052,76.867,7.294c18.828,0.178,37.667,0.793,56.481,0.355c19.673-0.456,40.17,15.793,34.233,43.78
				c-6.079,28.657-23.33,49.228-49.294,62.51c-20.775,10.629-43.196,16.146-66.183,17.734c-32.545,2.25-65.212,2.748-97.827,3.964
				C-654.057,315.657-655.177,315.368-656.818,315.169z"/>
			<path fill-rule="evenodd" clip-rule="evenodd" fill="#FFFFFF" d="M-52.913,770.336c14.127,3.206,27.681,5.841,40.967,9.46
				c8.268,2.252,13.566,14.512,10.735,22.658c-0.291,0.837-1.141,1.622-1.927,2.122c-12.485,7.924-25.004,15.797-38.081,24.039
				C-51.376,810.559-55.482,791.737-52.913,770.336z"/>
			<path fill-rule="evenodd" clip-rule="evenodd" fill="#FFFFFF" d="M-279.922,33.438c4.192-37.112,16.403-70.159,38.166-99.923
				c-2.509,5.688,0.09,7.67,4.994,9.372c13.342,4.631,26.532,9.707,39.709,14.797c3.057,1.181,6.096,2.769,8.659,4.784
				c4.38,3.444,5.889,8.51,3.561,13.418c-8.045,16.965-16.397,33.785-24.749,50.603c-0.472,0.95-1.938,1.902-3.009,1.985
				C-234.627,30.176-256.674,31.751-279.922,33.438z"/>
		</g>
	</g>
</g>
<path fill-rule="evenodd" clip-rule="evenodd" fill="#8166AD" d="M363.205,85.989c-0.995-1.12-2.457-2.687-3.81-4.344
	c-0.337-0.411-0.409-1.106-0.445-1.682c-0.071-1.14-0.107-2.293-0.024-3.431c0.257-3.527-0.969-6.483-3.448-8.91
	c-1.063-1.043-0.866-1.695,0.175-2.581c1.793-1.523,3.495-3.158,5.203-4.779c0.738-0.702,1.307-0.847,2.246-0.165
	c3.66,2.653,7.462,2.994,11.514,0.678c3.15-1.8,6.443-3.353,9.694-4.973c1.388-0.695,2-1.607,1.586-3.235
	c-0.962-3.774-1.825-7.574-2.689-11.37c-0.349-1.535-1.544-1.912-2.812-2.229c-4.373-1.09-8.729-2.25-13.129-3.221
	c-1.775-0.393-2.29-1.054-1.459-2.728c0.438-0.884,0.672-1.869,1.055-2.965c-6.234-1.126-12.317-2.226-18.4-3.326
	c-0.397-0.071-0.83-0.066-1.184-0.233c-0.717-0.337-1.391-0.768-2.082-1.159c0.668-0.471,1.275-1.194,2.014-1.371
	c4.315-1.033,8.662-1.938,12.998-2.889c5.781-1.268,11.568-2.515,17.338-3.828c0.961-0.218,1.938-0.596,2.767-1.12
	c11.719-7.404,23.629-8.002,35.609-0.804c4.14,2.487,8.1,5.314,11.929,8.259c3.706,2.851,5.869,6.635,6.31,11.49
	c0.738,8.122,0.677,16.112-1.854,23.975c-0.673,2.095-1.732,3.208-3.928,3.724c-16.643,3.899-33.158,8.295-48.938,14.976
	C374.09,80.015,369.043,82.999,363.205,85.989z"/>
<path fill-rule="evenodd" clip-rule="evenodd" fill="#8166AD" d="M235.565,65.647c0.93-3.789,2.054-6.815,2.368-9.923
	c1.727-17.004,10.693-28.078,26.963-33.058c9.933-3.042,20.16-4.913,30.558-3.442c17.82,2.521,29.284,15.605,29.662,33.588
	c0.087,4.099-0.668,8.214-1.015,12.323c-0.226,2.681-0.414,5.365-0.66,8.579c-7.728,5.705-13.875,4.729-19.37-3.641
	c-4.896-7.453-12.601-7.666-18.096-0.501c-4.762,6.208-10.384,6.394-14.821,0.198c-2.139-2.984-4.766-4.153-8.258-4.138
	C253.744,65.677,244.59,65.647,235.565,65.647z"/>
<g>
	<path fill="#8166AD" d="M92.078,39.367c0.707-2.812,0.794-5.699-0.704-8.355c-3.071-5.448-6.668-10.493-11.482-14.566
		C67.236,5.739,45.102,4.554,30.677,13.813c-5.954,3.82-10.557,8.87-13.461,15.336c-0.678,1.51-0.655,3.321-1.116,4.948
		c-0.574,2.028-1.565,3.965-1.94,6.02c-1.526,8.37-3.147,16.74-4.167,25.177c-0.353,2.926,0.477,6.24,1.627,9.027
		c0.913,2.209,1.583,4.314,1.823,6.662c0.169,1.654,0.568,3.303,1.043,4.904c0.855,2.887,1.596,3.158,4.274,1.705
		c18.967-10.291,39.652-15.225,60.562-19.467c2.514-0.512,5.017-1.066,8.108-1.725c-2.538-2.168-1.454-4.109-0.882-6.16
		C88.477,53.309,90.322,46.349,92.078,39.367z M53.033,40.336c-0.631,1.749-1.439,3.438-2.237,5.123
		c-1.985,4.191-5.115,7.231-9.538,8.657c-8.336,2.688-16.724,5.217-25.092,7.805c-1.294,0.398-2.602,0.75-4.351,1.25
		c0.579-5,0.79-9.746,1.75-14.333c1.114-5.328,2.891-10.516,4.363-15.77c0.32-1.141,1.023-1.457,2.184-1.501
		c8.577-0.336,17.151-0.764,25.729-1.132C52.811,30.133,55.425,33.717,53.033,40.336z"/>
</g>
</svg>
